<?xml version="1.0" standalone="no"?>
<!DOCTYPE svg PUBLIC "-//W3C//DTD SVG 20010904//EN"
 "http://www.w3.org/TR/2001/REC-SVG-20010904/DTD/svg10.dtd">
<svg version="1.0" xmlns="http://www.w3.org/2000/svg"
 width="612.000000pt" height="612.000000pt" viewBox="0 0 612.000000 612.000000"
 preserveAspectRatio="xMidYMid meet">

<g transform="translate(0.000000,612.000000) scale(0.100000,-0.100000)"
fill="#000000" stroke="none">
<path d="M2768 5327 c-4 -123 -7 -138 -35 -198 -38 -80 -99 -141 -183 -182
-59 -29 -73 -32 -160 -32 -128 0 -178 23 -298 139 l-88 85 -202 -202 c-111
-111 -202 -206 -202 -210 0 -5 36 -44 80 -89 49 -49 90 -101 107 -136 25 -51
28 -67 28 -162 0 -99 -2 -109 -32 -165 -40 -76 -101 -138 -172 -173 -51 -25
-67 -27 -193 -30 l-138 -4 0 -284 c0 -156 -1 -287 -2 -291 -2 -5 58 -10 132
-13 121 -5 142 -9 197 -34 76 -35 144 -103 181 -184 24 -50 27 -69 27 -157 0
-93 -2 -105 -32 -165 -22 -45 -57 -90 -112 -144 l-80 -80 204 -203 c112 -112
207 -203 211 -203 4 0 46 38 93 84 96 93 139 119 227 136 144 28 316 -50 391
-178 37 -62 53 -141 53 -259 l0 -103 290 0 290 0 0 108 c0 158 25 234 103 319
81 88 220 134 339 113 89 -17 146 -50 224 -130 38 -39 76 -75 86 -80 13 -8 54
29 217 192 111 111 201 204 201 206 0 3 -37 44 -83 91 -114 119 -132 157 -132
291 0 93 3 112 27 162 37 79 98 142 176 180 62 31 73 33 199 36 l133 4 0 144
0 144 -462 -2 -463 -3 -6 -75 c-17 -202 -108 -389 -258 -533 -177 -169 -382
-245 -634 -235 -103 4 -137 10 -219 38 -329 110 -549 382 -588 725 -51 460
282 877 748 936 l92 12 0 463 0 464 -139 0 -138 0 -5 -133z"/>
<path d="M3925 5220 c-3 -6 1 -7 9 -4 18 7 21 14 7 14 -6 0 -13 -4 -16 -10z"/>
<path d="M3595 5130 c-3 -6 1 -7 9 -4 18 7 21 14 7 14 -6 0 -13 -4 -16 -10z"/>
<path d="M3258 4743 c7 -3 16 -2 19 1 4 3 -2 6 -13 5 -11 0 -14 -3 -6 -6z"/>
<path d="M3855 4650 c3 -5 8 -10 11 -10 2 0 4 5 4 10 0 6 -5 10 -11 10 -5 0
-7 -4 -4 -10z"/>
<path d="M4571 4563 c-10 -26 -10 -27 4 -9 8 11 15 23 15 28 0 15 -7 8 -19
-19z"/>
<path d="M3645 4560 c3 -5 8 -10 11 -10 2 0 4 5 4 10 0 6 -5 10 -11 10 -5 0
-7 -4 -4 -10z"/>
<path d="M4015 4109 c-4 -6 -5 -12 -2 -15 2 -3 7 2 10 11 7 17 1 20 -8 4z"/>
<path d="M4036 4037 c3 -10 9 -15 12 -12 3 3 0 11 -7 18 -10 9 -11 8 -5 -6z"/>
<path d="M3792 3950 c0 -14 2 -19 5 -12 2 6 2 18 0 25 -3 6 -5 1 -5 -13z"/>
<path d="M2048 1513 c-12 -3 -18 -14 -18 -33 0 -27 3 -29 53 -37 l52 -8 3
-334 c2 -238 -1 -338 -9 -347 -7 -8 -30 -14 -55 -14 -44 0 -44 0 -44 -35 l0
-35 225 0 225 0 0 35 c0 35 0 35 -43 35 -79 0 -77 -8 -77 357 0 244 3 323 13
331 6 5 33 13 60 17 45 7 47 8 47 41 l0 34 -207 -1 c-115 -1 -216 -3 -225 -6z"/>
<path d="M3320 1395 l0 -125 49 0 50 0 12 76 c13 82 23 93 84 88 17 -1 40 -3
53 -3 l22 -1 0 -335 c0 -320 -1 -335 -19 -345 -11 -5 -36 -10 -55 -10 -34 0
-36 -2 -36 -35 l0 -35 220 0 220 0 0 35 c0 33 -2 35 -34 35 -19 0 -43 8 -55
18 -21 17 -21 21 -19 347 l3 329 64 -1 c35 -1 67 -5 73 -11 5 -5 14 -40 21
-78 l13 -69 52 -3 53 -3 -3 123 -3 123 -382 3 -383 2 0 -125z"/>
<path d="M3256 1093 c-6 -14 -5 -15 5 -6 7 7 10 15 7 18 -3 3 -9 -2 -12 -12z"/>
<path d="M2611 1054 c0 -11 3 -14 6 -6 3 7 2 16 -1 19 -3 4 -6 -2 -5 -13z"/>
<path d="M2820 791 c0 -6 4 -13 10 -16 6 -3 7 1 4 9 -7 18 -14 21 -14 7z"/>
<path d="M2800 781 c0 -6 4 -13 10 -16 6 -3 7 1 4 9 -7 18 -14 21 -14 7z"/>
</g>
</svg>
